<svg width="38" height="33" viewBox="0 0 38 33" fill="none" xmlns="http://www.w3.org/2000/svg">
<rect x="1.78906" y="2.29395" width="34.0457" height="28.1681" fill="white"/>
<path d="M0.359375 28.1374C0.359375 29.3794 0.852753 30.5705 1.73097 31.4487C2.60919 32.3269 3.80031 32.8203 5.0423 32.8203H33.1399C34.3819 32.8203 35.573 32.3269 36.4512 31.4487C37.3294 30.5705 37.8228 29.3794 37.8228 28.1374V5.50324C37.8228 4.26125 37.3294 3.07013 36.4512 2.19191C35.573 1.31369 34.3819 0.820313 33.1399 0.820312H5.0423C3.80031 0.820313 2.60919 1.31369 1.73097 2.19191C0.852753 3.07013 0.359375 4.26125 0.359375 5.50324L0.359375 28.1374ZM22.9935 4.72275C22.9862 4.99999 22.9031 5.26994 22.7531 5.50324C22.6229 5.7395 22.4317 5.93649 22.1994 6.07369C21.9671 6.21088 21.7023 6.28325 21.4325 6.28325C21.1628 6.28325 20.8979 6.21088 20.6657 6.07369C20.4334 5.93649 20.2422 5.7395 20.112 5.50324C19.962 5.26994 19.8789 4.99999 19.8716 4.72275C19.8786 4.44547 19.9618 4.17546 20.112 3.94226C20.2422 3.70601 20.4334 3.50901 20.6657 3.37182C20.8979 3.23462 21.1628 3.16225 21.4325 3.16225C21.7023 3.16225 21.9671 3.23462 22.1994 3.37182C22.4317 3.50901 22.6229 3.70601 22.7531 3.94226C22.9033 4.17546 22.9865 4.44547 22.9935 4.72275ZM28.4569 4.72275C28.4496 4.99999 28.3665 5.26994 28.2165 5.50324C28.0863 5.7395 27.8951 5.93649 27.6628 6.07369C27.4306 6.21088 27.1657 6.28325 26.896 6.28325C26.6262 6.28325 26.3614 6.21088 26.1291 6.07369C25.8968 5.93649 25.7056 5.7395 25.5754 5.50324C25.4254 5.26994 25.3423 4.99999 25.335 4.72275C25.342 4.44547 25.4252 4.17546 25.5754 3.94226C25.7056 3.70601 25.8968 3.50901 26.1291 3.37182C26.3614 3.23462 26.6262 3.16225 26.896 3.16225C27.1657 3.16225 27.4306 3.23462 27.6628 3.37182C27.8951 3.50901 28.0863 3.70601 28.2165 3.94226C28.3667 4.17546 28.4499 4.44547 28.4569 4.72275ZM33.9203 4.72275C33.9131 4.99999 33.8299 5.26994 33.68 5.50324C33.5497 5.7395 33.3585 5.93649 33.1262 6.07369C32.894 6.21088 32.6291 6.28325 32.3594 6.28325C32.0896 6.28325 31.8248 6.21088 31.5925 6.07369C31.3602 5.93649 31.169 5.7395 31.0388 5.50324C30.8888 5.26994 30.8057 4.99999 30.7984 4.72275C30.8055 4.44547 30.8886 4.17546 31.0388 3.94226C31.1711 3.70774 31.3627 3.51215 31.5946 3.37516C31.8264 3.23816 32.0901 3.16457 32.3594 3.16178C32.6593 3.16314 32.9525 3.25087 33.2038 3.41447C33.4552 3.57808 33.6541 3.81063 33.7767 4.08431C33.8698 4.28439 33.9187 4.50211 33.9203 4.72275ZM3.48133 9.01387C3.48133 8.91037 3.52244 8.81111 3.59563 8.73793C3.66881 8.66474 3.76807 8.62363 3.87157 8.62363H34.3106C34.4141 8.62363 34.5134 8.66474 34.5865 8.73793C34.6597 8.81111 34.7008 8.91037 34.7008 9.01387V28.1358C34.7008 28.5498 34.5364 28.9469 34.2436 29.2396C33.9509 29.5323 33.5539 29.6968 33.1399 29.6968H5.0423C4.6283 29.6968 4.23126 29.5323 3.93853 29.2396C3.64579 28.9469 3.48133 28.5498 3.48133 28.1358V9.01387Z" fill="#4A3AFF"/>
<path d="M10.9609 23.7774C11.2537 24.0701 11.6506 24.2345 12.0645 24.2345C12.4785 24.2345 12.8754 24.0701 13.1682 23.7774L17.0706 19.875C17.3632 19.5823 17.5276 19.1853 17.5276 18.7714C17.5276 18.3575 17.3632 17.9605 17.0706 17.6678L13.1682 13.7653C12.8738 13.481 12.4794 13.3237 12.0702 13.3272C11.6609 13.3308 11.2694 13.4949 10.98 13.7843C10.6905 14.0738 10.5264 14.4653 10.5228 14.8746C10.5193 15.2838 10.6766 15.6781 10.9609 15.9726L13.4835 18.4951C13.5198 18.5313 13.5487 18.5744 13.5683 18.6218C13.588 18.6692 13.5981 18.7201 13.5981 18.7714C13.5981 18.8227 13.588 18.8735 13.5683 18.9209C13.5487 18.9684 13.5198 19.0114 13.4835 19.0477L10.9609 21.5702C10.6683 21.8629 10.5039 22.2599 10.5039 22.6738C10.5039 23.0877 10.6683 23.4847 10.9609 23.7774Z" fill="#4A3AFF"/>
<path d="M20.6508 24.2352H26.8947C27.3087 24.2352 27.7058 24.0708 27.9985 23.778C28.2912 23.4853 28.4557 23.0883 28.4557 22.6743C28.4557 22.2603 28.2912 21.8632 27.9985 21.5705C27.7058 21.2777 27.3087 21.1133 26.8947 21.1133H20.6508C20.2368 21.1133 19.8398 21.2777 19.547 21.5705C19.2543 21.8632 19.0898 22.2603 19.0898 22.6743C19.0898 23.0883 19.2543 23.4853 19.547 23.778C19.8398 24.0708 20.2368 24.2352 20.6508 24.2352Z" fill="#4A3AFF"/>
</svg>
