<svg width="36" height="29" viewBox="0 0 36 29" fill="none" xmlns="http://www.w3.org/2000/svg">
<path d="M35.2569 12.7669C35.2506 11.6697 34.9064 10.601 34.2711 9.7064C33.6359 8.81176 32.7404 8.13458 31.7065 7.76702C31.5048 7.69408 31.2884 7.67085 31.0758 7.69927C30.8632 7.7277 30.6606 7.80695 30.4851 7.93031C30.3096 8.05367 30.1664 8.21751 30.0677 8.40796C29.969 8.5984 29.9176 8.80983 29.918 9.02433L29.9367 19.2323C29.9372 19.4464 29.9892 19.6572 30.0883 19.8469C30.1873 20.0367 30.3306 20.1998 30.506 20.3226C30.6813 20.4453 30.8836 20.5241 31.0958 20.5522C31.308 20.5804 31.5239 20.5571 31.7252 20.4843C32.7611 20.1117 33.6565 19.4279 34.2887 18.5266C34.921 17.6253 35.2591 16.5506 35.2569 15.4497V12.7669Z" fill="#4A3AFF"/>
<path d="M28.7912 1.36939C28.7912 1.03936 28.6601 0.722841 28.4268 0.489473C28.1934 0.256105 27.8769 0.125 27.5468 0.125C27.2168 0.125 26.9003 0.256105 26.6669 0.489473C26.4336 0.722841 26.3025 1.03936 26.3025 1.36939V2.33255L3.71181 9.62591C3.58663 9.66644 3.47752 9.7456 3.40016 9.85203C3.3228 9.95845 3.28117 10.0867 3.28125 10.2182V17.6311C3.28124 17.7635 3.32347 17.8924 3.4018 17.9992C3.48013 18.1059 3.59048 18.1849 3.71679 18.2246L5.33449 18.7324C5.4608 18.7721 5.57114 18.8511 5.64947 18.9578C5.7278 19.0646 5.77004 19.1935 5.77003 19.3259V22.5501C5.77824 24.0305 6.37164 25.4474 7.42073 26.4919C8.46982 27.5363 9.88944 28.1234 11.3698 28.125H11.3959C12.8797 28.1164 14.2995 27.52 15.3443 26.4664C16.3891 25.4127 16.9735 23.9879 16.9695 22.5041V22.3797L26.3025 25.304V26.2572C26.3025 26.5872 26.4336 26.9037 26.6669 27.1371C26.9003 27.3705 27.2168 27.5016 27.5468 27.5016C27.8769 27.5016 28.1934 27.3705 28.4268 27.1371C28.6601 26.9037 28.7912 26.5872 28.7912 26.2572V1.36939ZM14.4808 22.5103C14.4827 22.9189 14.4042 23.3238 14.2497 23.702C14.0951 24.0802 13.8676 24.4242 13.5801 24.7145C13.2926 25.0048 12.9508 25.2356 12.5741 25.3937C12.1974 25.5519 11.7933 25.6343 11.3847 25.6362H11.3698C10.5481 25.6362 9.75985 25.3112 9.177 24.7321C8.59415 24.153 8.26407 23.3668 8.25881 22.5452V20.4956C8.2588 20.398 8.2818 20.3016 8.32594 20.2145C8.37008 20.1273 8.43413 20.0518 8.51289 19.994C8.59165 19.9362 8.68292 19.8978 8.7793 19.8818C8.87568 19.8658 8.97446 19.8728 9.06766 19.9021L14.0452 21.4625C14.1715 21.5023 14.2819 21.5812 14.3602 21.688C14.4385 21.7947 14.4808 21.9237 14.4808 22.0561V22.5103Z" fill="#4A3AFF"/>
<path d="M3.28206 9.64367C3.28206 9.30953 3.13715 8.98907 2.87921 8.7528C2.62127 8.51653 2.27143 8.38379 1.90665 8.38379C1.54187 8.38379 1.19203 8.51653 0.934096 8.7528C0.676158 8.98907 0.53125 9.30953 0.53125 9.64367L0.538127 18.4628C0.538127 18.6283 0.573703 18.7921 0.642823 18.945C0.711944 19.0978 0.813255 19.2367 0.940973 19.3537C1.06869 19.4707 1.22031 19.5635 1.38719 19.6268C1.55406 19.6901 1.73291 19.7227 1.91353 19.7227H1.90665C2.26578 19.7228 2.61071 19.5942 2.86772 19.3644C3.12473 19.1347 3.27344 18.8219 3.28206 18.4931V9.64367Z" fill="white"/>
</svg>
