<svg width="40" height="42" viewBox="0 0 40 42" fill="none" xmlns="http://www.w3.org/2000/svg">
<path fill-rule="evenodd" clip-rule="evenodd" d="M37.2849 24.391C38.0245 24.7838 38.5951 25.4042 38.9966 26.0246C39.7785 27.3066 39.7151 28.8782 38.9544 30.2636L37.4751 32.7451C36.6932 34.0685 35.2351 34.8956 33.7346 34.8956C32.995 34.8956 32.1708 34.6888 31.4946 34.2753C30.9452 33.9237 30.3112 33.7997 29.6349 33.7997C27.5428 33.7997 25.7888 35.516 25.7254 37.5631C25.7254 39.9412 23.7812 41.8022 21.351 41.8022H18.477C16.0256 41.8022 14.0814 39.9412 14.0814 37.5631C14.0392 35.516 12.2852 33.7997 10.193 33.7997C9.49567 33.7997 8.8617 33.9237 8.33338 34.2753C7.65714 34.6888 6.81184 34.8956 6.09334 34.8956C4.5718 34.8956 3.11366 34.0685 2.33175 32.7451L0.873613 30.2636C0.09171 28.9195 0.049445 27.3066 0.831348 26.0246C1.16947 25.4042 1.80344 24.7838 2.52195 24.391C3.11366 24.1015 3.49404 23.6259 3.85329 23.0675C4.90992 21.2892 4.27594 18.9525 2.47968 17.8979C0.387565 16.7193 -0.288675 14.0931 0.915878 12.0459L2.33175 9.60587C3.55744 7.5587 6.17787 6.83495 8.29112 8.0343C10.1296 9.02687 12.5176 8.36516 13.5954 6.60749C13.9335 6.02849 14.1237 5.40814 14.0814 4.78779C14.0392 3.98133 14.2716 3.21622 14.6731 2.59587C15.455 1.31381 16.8709 0.486669 18.4136 0.445312H21.3933C22.9571 0.445312 24.373 1.31381 25.1549 2.59587C25.5352 3.21622 25.7888 3.98133 25.7254 4.78779C25.6832 5.40814 25.8734 6.02849 26.2115 6.60749C27.2892 8.36516 29.6772 9.02687 31.5369 8.0343C33.629 6.83495 36.2705 7.5587 37.4751 9.60587L38.891 12.0459C40.1167 14.0931 39.4404 16.7193 37.3272 17.8979C35.5309 18.9525 34.8969 21.2892 35.9747 23.0675C36.3128 23.6259 36.6932 24.1015 37.2849 24.391ZM13.9343 21.1439C13.9343 24.3905 16.6181 26.9753 19.9359 26.9753C23.2537 26.9753 25.8742 24.3905 25.8742 21.1439C25.8742 17.8974 23.2537 15.2919 19.9359 15.2919C16.6181 15.2919 13.9343 17.8974 13.9343 21.1439Z" fill="#4A3AFF"/>
</svg>
