<svg width="39" height="33" viewBox="0 0 39 33" fill="none" xmlns="http://www.w3.org/2000/svg">
<rect x="2.10938" y="2.38574" width="34.0457" height="28.1681" fill="white"/>
<rect x="7.27734" y="10.8428" width="23.7094" height="5.66188" rx="0.680278" fill="#4A3AFF"/>
<rect x="7.27734" y="19.2754" width="10.8407" height="7.31969" rx="0.680278" fill="#4A3AFF"/>
<rect x="20.1445" y="19.2754" width="10.8407" height="2.30835" rx="0.680278" fill="#4A3AFF"/>
<rect x="20.1445" y="24.2871" width="10.8407" height="2.30835" rx="0.680278" fill="#4A3AFF"/>
<path d="M0.679688 28.2292C0.679688 29.4712 1.17307 30.6623 2.05128 31.5405C2.9295 32.4187 4.12062 32.9121 5.36261 32.9121H33.4602C34.7022 32.9121 35.8933 32.4187 36.7715 31.5405C37.6497 30.6623 38.1431 29.4712 38.1431 28.2292V5.59504C38.1431 4.35305 37.6497 3.16193 36.7715 2.28371C35.8933 1.40549 34.7022 0.912109 33.4602 0.912109H5.36261C4.12062 0.912109 2.9295 1.40549 2.05128 2.28371C1.17307 3.16193 0.679688 4.35305 0.679688 5.59504L0.679688 28.2292ZM23.3138 4.81455C23.3065 5.09179 23.2234 5.36173 23.0734 5.59504C22.9432 5.83129 22.752 6.02829 22.5197 6.16548C22.2875 6.30268 22.0226 6.37505 21.7529 6.37505C21.4831 6.37505 21.2183 6.30268 20.986 6.16548C20.7537 6.02829 20.5625 5.83129 20.4323 5.59504C20.2823 5.36173 20.1992 5.09179 20.1919 4.81455C20.1989 4.53727 20.2821 4.26726 20.4323 4.03406C20.5625 3.7978 20.7537 3.60081 20.986 3.46361C21.2183 3.32642 21.4831 3.25405 21.7529 3.25405C22.0226 3.25405 22.2875 3.32642 22.5197 3.46361C22.752 3.60081 22.9432 3.7978 23.0734 4.03406C23.2236 4.26726 23.3068 4.53727 23.3138 4.81455ZM28.7772 4.81455C28.77 5.09179 28.6868 5.36173 28.5369 5.59504C28.4066 5.83129 28.2154 6.02829 27.9831 6.16548C27.7509 6.30268 27.486 6.37505 27.2163 6.37505C26.9465 6.37505 26.6817 6.30268 26.4494 6.16548C26.2171 6.02829 26.0259 5.83129 25.8957 5.59504C25.7457 5.36173 25.6626 5.09179 25.6553 4.81455C25.6623 4.53727 25.7455 4.26726 25.8957 4.03406C26.0259 3.7978 26.2171 3.60081 26.4494 3.46361C26.6817 3.32642 26.9465 3.25405 27.2163 3.25405C27.486 3.25405 27.7509 3.32642 27.9831 3.46361C28.2154 3.60081 28.4066 3.7978 28.5369 4.03406C28.687 4.26726 28.7702 4.53727 28.7772 4.81455ZM34.2407 4.81455C34.2334 5.09179 34.1502 5.36173 34.0003 5.59504C33.8701 5.83129 33.6788 6.02829 33.4466 6.16548C33.2143 6.30268 32.9495 6.37505 32.6797 6.37505C32.4099 6.37505 32.1451 6.30268 31.9128 6.16548C31.6805 6.02829 31.4893 5.83129 31.3591 5.59504C31.2091 5.36173 31.126 5.09179 31.1187 4.81455C31.1258 4.53727 31.2089 4.26726 31.3591 4.03406C31.4914 3.79954 31.6831 3.60395 31.9149 3.46695C32.1467 3.32995 32.4104 3.25636 32.6797 3.25357C32.9796 3.25493 33.2728 3.34266 33.5241 3.50627C33.7755 3.66987 33.9744 3.90243 34.0971 4.17611C34.1901 4.37618 34.2391 4.59391 34.2407 4.81455ZM3.80164 9.10567C3.80164 9.00217 3.84275 8.90291 3.91594 8.82973C3.98912 8.75654 4.08838 8.71543 4.19188 8.71543H34.6309C34.7344 8.71543 34.8337 8.75654 34.9068 8.82973C34.98 8.90291 35.0211 9.00217 35.0211 9.10567V28.2276C35.0211 28.6416 34.8567 29.0387 34.564 29.3314C34.2712 29.6241 33.8742 29.7886 33.4602 29.7886H5.36261C4.94862 29.7886 4.55158 29.6241 4.25884 29.3314C3.9661 29.0387 3.80164 28.6416 3.80164 28.2276V9.10567Z" fill="#4A3AFF"/>
</svg>
